Coordinates
version=1
nRows=28
nColumns=23
inDegrees=yes

Units are S.I. units (second, meters, Newtons, ...)
If the header above contains a line with 'inDegrees', this indicates whether rotational values are in degrees (yes) or radians (no).

endheader
time	pelvis_tilt	pelvis_list	pelvis_rotation	pelvis_tx	pelvis_ty	pelvis_tz	hip_flexion_r	hip_adduction_r	hip_rotation_r	knee_angle_r	knee_angle_r_beta	ankle_angle_r	subtalar_angle_r	mtp_angle_r	hip_flexion_l	hip_adduction_l	hip_rotation_l	knee_angle_l	knee_angle_l_beta	ankle_angle_l	subtalar_angle_l	mtp_angle_l
      0.00000000	     -5.10752127	     -4.18243673	     -3.17321767	      2.12957667	      0.96921167	      1.00974496	     30.20687723	      1.89484490	    -22.51261060	     28.10139475	      0.49046186	      0.13823921	      0.30768314	      0.00000000	     -9.40226692	     -7.58661688	    -13.69069346	     66.93025595	      1.16815334	    -18.95621679	    -28.11307638	      0.00000000
      0.00666667	     -5.00235432	     -4.45244165	     -3.54145748	      2.12757845	      0.96467349	      1.01054153	     29.88337796	      2.34576845	    -21.97928930	     30.42287237	      0.53097929	      2.78559736	     -0.96411804	      0.00000000	     -7.34862559	     -8.39991593	    -13.74128565	     71.32119381	      1.24478966	    -18.34552833	    -28.62064466	      0.00000000
      0.01333333	     -4.89409333	     -4.80653620	     -3.87435713	      2.12550026	      0.96002851	      1.01121818	     29.50559713	      2.93134181	    -21.34769289	     32.57919688	      0.56861425	      5.25327571	     -2.28368685	      0.00000000	     -5.33555499	     -9.22429675	    -13.59689896	     75.54625398	      1.31853087	    -17.69056063	    -28.93186018	      0.00000000
      0.02000000	     -4.74831411	     -5.25105158	     -4.15185401	      2.12343300	      0.95553994	      1.01169941	     29.00091663	      3.57810196	    -20.78818129	     34.57371388	      0.60342514	      7.56996436	     -3.51738781	      0.00000000	     -3.37194630	    -10.06930035	    -13.25758239	     79.56207281	      1.38862013	    -17.00849478	    -29.09652883	      0.00000000
      0.02666667	     -4.78820179	     -5.42455725	     -4.51425064	      2.12096942	      0.95091601	      1.01213562	     28.78887740	      4.01981033	    -19.84601150	     36.62875750	      0.63929242	      9.76101911	     -4.93025240	      0.00000000	     -1.12413672	    -10.48729983	    -12.76051242	     83.38138319	      1.45527967	    -16.34726672	    -29.20607861	      0.00000000
      0.03333333	     -4.77391811	     -5.78322979	     -4.77379138	      2.11852749	      0.94677215	      1.01225313	     28.37013266	      4.55468701	    -19.10717846	     38.44588868	      0.67100734	     11.73521063	     -6.01033785	      0.00000000	      1.11926554	    -11.01928964	    -12.02223022	     86.96575981	      1.51783885	    -15.72004216	    -29.23916444	      0.00000000
      0.04000000	     -4.74852887	     -6.11504798	     -5.04212272	      2.11592490	      0.94311727	      1.01221910	     27.85020242	      5.04230165	    -18.29510109	     40.08353018	      0.69958958	     13.58689158	     -6.90530929	      0.00000000	      3.43587731	    -11.40049546	    -11.13286203	     90.28402086	      1.57575343	    -15.05778417	    -29.23422211	      0.00000000
      0.04666667	     -4.85271914	     -6.25528150	     -5.32022873	      2.11313889	      0.93972669	      1.01208295	     27.42924329	      5.33399203	    -17.30846698	     41.63217655	      0.72661856	     15.31849256	     -7.73337237	      0.00000000	      5.99588589	    -11.48213602	    -10.13708151	     93.31613214	      1.62867375	    -14.47741143	    -29.19579166	      0.00000000
      0.05333333	     -5.03787195	     -6.33549291	     -5.57346437	      2.11036957	      0.93680542	      1.01180422	     26.95581739	      5.54025255	    -16.29972823	     42.95930394	      0.74978130	     16.93920335	     -8.33179818	      0.00000000	      8.73436043	    -11.40723832	     -9.02152927	     96.03919095	      1.67620009	    -13.87831568	    -29.10215285	      0.00000000
      0.06000000	     -5.15899774	     -6.58637618	     -5.64497173	      2.10785105	      0.93460532	      1.01131325	     26.16871078	      5.79585939	    -15.60818134	     43.91835097	      0.76651983	     18.42039087	     -8.61151532	      0.00000000	     11.46471197	    -11.47934970	     -7.70028910	     98.42442347	      1.71783025	    -13.28675870	    -28.91436116	      0.00000000
      0.06666667	     -5.10989707	     -6.69095601	     -5.63497837	      2.10556447	      0.93326887	      1.01077088	     25.03954500	      5.86047297	    -14.91082044	     44.62296370	      0.77881764	     19.82025648	     -8.82589718	      0.00000000	     14.02268261	    -11.33493192	     -6.39282609	    100.34862215	      1.75141386	    -12.76124373	    -28.62041920	      0.00000000
      0.07333333	     -5.54704881	     -6.56974286	     -5.47362525	      2.10335777	      0.93188185	      1.01011760	     24.31532396	      5.64063835	    -14.41715511	     45.12009606	      0.78749424	     21.00233540	     -8.76549332	      0.00000000	     17.24421785	    -10.82943362	     -4.88658456	    101.96360495	      1.77960062	    -12.12921848	    -28.08041875	      0.00000000
      0.08000000	     -5.76325573	     -6.22321671	     -5.25032247	      2.10150910	      0.93135721	      1.00952368	     23.22133009	      5.12283781	    -14.02047452	     45.43837466	      0.79304924	     22.23570334	     -8.41952992	      0.00000000	     20.15029253	    -10.06006852	     -3.59036333	    103.06317437	      1.79879173	    -11.52323659	    -27.37238374	      0.00000000
      0.08666667	     -5.74481130	     -6.04947230	     -4.77856920	      2.10018068	      0.93191380	      1.00882766	     21.57981415	      4.74199856	    -13.92007739	     45.23205226	      0.78944824	     23.02530650	     -8.23655421	      0.00000000	     22.74161902	     -9.42527387	     -2.20040595	    103.70889346	      1.81006165	    -10.80864259	    -26.34581885	      0.00000000
      0.09333333	     -5.66364035	     -5.72117971	     -4.19273919	      2.09926897	      0.93312757	      1.00813135	     19.71623588	      4.14307954	    -14.07070165	     44.78060737	      0.78156904	     23.69244907	     -7.67824823	      0.00000000	     25.16402437	     -8.59024818	     -0.95937427	    103.88362340	      1.81311127	    -10.06085182	    -25.17266629	      0.00000000
      0.10000000	     -5.50809322	     -5.19544451	     -3.54313460	      2.09865694	      0.93502259	      1.00747180	     17.65397024	      3.39442471	    -14.21229340	     44.07678399	      0.76928500	     23.99222061	     -7.39052150	      0.00000000	     27.36862751	     -7.50468998	      0.06033869	    103.58263881	      1.80785810	     -9.40164764	    -24.15249164	      0.00000000
      0.10666667	     -5.12247922	     -4.67671303	     -2.75004096	      2.09863501	      0.93776292	      1.00671300	     15.13047045	      2.53148642	    -14.88897265	     43.06210735	      0.75157556	     24.16900783	     -6.18836334	      0.00000000	     29.12761785	     -6.40890009	      0.95230612	    102.81370197	      1.79443762	     -8.72227602	    -23.17247151	      0.00000000
      0.11333333	     -5.14005979	     -3.85999419	     -2.28209152	      2.09839796	      0.94048314	      1.00647270	     13.11065777	      1.69502777	    -14.78222956	     41.95925964	      0.73232723	     23.83141970	     -5.92026775	      0.00000000	     31.14997977	     -5.15263805	      1.31544001	    101.64967304	      1.77412148	     -8.26824041	    -22.60858185	      0.00000000
      0.12000000	     -4.50698240	     -3.06629255	     -1.30782488	      2.09931914	      0.94453655	      1.00551335	     10.03370730	      0.52583828	    -15.99132203	     40.44680739	      0.70592996	     23.22849588	     -4.58793596	      0.00000000	     32.21633624	     -3.74881924	      1.79893585	     99.98280871	      1.74502921	     -7.72565278	    -22.16199358	      0.00000000
      0.12666667	     -4.26731765	     -2.13593294	     -0.64099338	      2.10017260	      0.94846103	      1.00499366	      7.43855959	     -0.51058994	    -16.60510380	     38.85716038	      0.67818539	     22.19054073	     -3.77766427	      0.00000000	     33.50440351	     -2.37251309	      1.86489619	     97.97555865	      1.70999608	     -7.32733496	    -22.05618042	      0.00000000
      0.13333333	     -4.14132151	     -1.14649302	     -0.04323525	      2.10134829	      0.95255299	      1.00454905	      4.91909397	     -1.52981222	    -17.18780056	     37.11474832	      0.64777456	     20.68860677	     -3.11185283	      0.00000000	     34.69385797	     -1.02176511	      1.70517539	     95.61263584	      1.66875530	     -6.95531343	    -22.14470705	      0.00000000
      0.14000000	     -4.02173898	     -0.25674898	      0.46401670	      2.10281430	      0.95694370	      1.00421536	      2.35047080	     -2.35514031	    -17.74188653	     35.15651655	      0.61359697	     18.72325372	     -2.36161789	      0.00000000	     35.67530213	      0.11627774	      1.40391302	     92.92681644	      1.62187891	     -6.62030279	    -22.42504969	      0.00000000
      0.14666667	     -4.06435663	      0.67185415	      0.92284112	      2.10465673	      0.96127190	      1.00388800	     -0.03729764	     -3.18332321	    -18.30917860	     33.14938853	      0.57856597	     16.34253756	     -1.77509474	      0.00000000	     36.61482355	      1.24847228	      0.96860135	     89.93558020	      1.56967199	     -6.29682076	    -22.78071690	      0.00000000
      0.15333333	     -4.15341216	      1.44325609	      1.29681265	      2.10677265	      0.96570083	      1.00368641	     -2.38265273	     -3.75314596	    -18.76899490	     30.97208153	      0.54056480	     13.48886906	     -1.29113647	      0.00000000	     37.40786679	      2.12474853	      0.48158142	     86.67338188	      1.51273589	     -6.00294648	    -23.20894015	      0.00000000
      0.16000000	     -4.34046832	      2.13155700	      1.63205364	      2.10912926	      0.97000992	      1.00352767	     -4.58652487	     -4.18238700	    -19.15837717	     28.74751057	      0.50173871	     10.21905213	     -1.09873675	      0.00000000	     38.12631610	      2.86425491	     -0.02952357	     83.17920061	      1.45175092	     -5.71539101	    -23.54984203	      0.00000000
      0.16666667	     -4.69654832	      2.77192969	      1.95776954	      2.11162613	      0.97405275	      1.00330504	     -6.50323545	     -4.56909877	    -19.59089996	     26.64564603	      0.46505425	      6.77026105	     -0.86936333	      0.00000000	     38.84811998	      3.58029778	     -0.50285746	     79.43858319	      1.38646483	     -5.42554587	    -23.77531528	      0.00000000
      0.17333333	     -5.05295574	      3.12564955	      2.20094986	      2.11424564	      0.97807640	      1.00332195	     -8.37684876	     -4.50470749	    -19.58332331	     24.37905389	      0.42549476	      2.83167335	     -1.43421121	      0.00000000	     39.40961550	      3.91204269	     -0.91660336	     75.51782621	      1.31803471	     -5.12558018	    -23.74398474	      0.00000000
      0.18000000	     -5.53233481	      3.57098043	      2.57061615	      2.11691523	      0.98161720	      1.00307712	     -9.91637767	     -4.72259729	    -20.24016417	     22.63619133	      0.39507607	     -0.74037338	     -1.21718633	      0.00000000	     39.93623230	      4.46496981	     -1.22243601	     71.36335619	      1.24552553	     -4.88263054	    -23.59362790	      0.00000000
